<mxfile host="app.diagrams.net" modified="2024-07-03T05:15:09.218Z" agent="Mozilla/5.0 (Macintosh; Intel Mac OS X 10_15_7) AppleWebKit/537.36 (KHTML, like Gecko) Chrome/126.0.0.0 Safari/537.36" etag="oU1mbJm5bc_gFTsxZQB_" version="24.6.4" type="github">
  <diagram name="Seite-1" id="iQp57rr7BnhodMONBPUl">
    <mxGraphModel dx="892" dy="575" grid="1" gridSize="10" guides="1" tooltips="1" connect="1" arrows="1" fold="1" page="1" pageScale="1" pageWidth="827" pageHeight="1169" math="0" shadow="0">
      <root>
        <mxCell id="0" />
        <mxCell id="1" parent="0" />
        <mxCell id="YYEvh8epQLosTmu8focb-1" value="DefineForest" style="rounded=1;whiteSpace=wrap;html=1;" vertex="1" parent="1">
          <mxGeometry x="350" y="270" width="120" height="60" as="geometry" />
        </mxCell>
        <mxCell id="YYEvh8epQLosTmu8focb-3" value="start game" style="edgeStyle=orthogonalEdgeStyle;rounded=0;orthogonalLoop=1;jettySize=auto;html=1;entryX=0;entryY=0.5;entryDx=0;entryDy=0;" edge="1" parent="1" source="YYEvh8epQLosTmu8focb-2" target="YYEvh8epQLosTmu8focb-1">
          <mxGeometry relative="1" as="geometry" />
        </mxCell>
        <mxCell id="YYEvh8epQLosTmu8focb-2" value="Splash" style="rounded=1;whiteSpace=wrap;html=1;" vertex="1" parent="1">
          <mxGeometry x="110" y="270" width="120" height="60" as="geometry" />
        </mxCell>
      </root>
    </mxGraphModel>
  </diagram>
</mxfile>
